<?xml version="1.0" encoding="UTF-8"?>
<svg id="Layer_2" data-name="Layer 2" xmlns="http://www.w3.org/2000/svg" viewBox="0 0 145.94 145.94">
  <defs>
    <style>
      .cls-1 {
        fill: #000;
        stroke-width: 0px;
      }
    </style>
  </defs>
  <g id="Layer_1-2" data-name="Layer 1">
    <path class="cls-1" d="M72.97,145.94C32.73,145.94,0,113.2,0,72.97S32.73,0,72.97,0s72.97,32.73,72.97,72.97-32.73,72.97-72.97,72.97ZM72.97,8C37.15,8,8,37.15,8,72.97s29.15,64.97,64.97,64.97,64.97-29.14,64.97-64.97S108.79,8,72.97,8Z"/>
    <path class="cls-1" d="M112.02,80.08c-1.84-2.96-4.43-5.23-7.77-6.84s-7.19-2.4-11.54-2.4h-10.68l-6.87-13.29c3.41-1.61,5.92-3.72,7.52-6.32,1.6-2.6,2.4-5.88,2.4-9.83,0-5.46-1.9-9.69-5.7-12.68-3.8-2.99-9.08-4.49-15.82-4.49h-22.38v56.88h13.71v-20.12h7.42l7.71,15.45v51.28h13.71v-19.3h8.75c6.93,0,12.38-1.66,16.35-4.98s5.96-7.75,5.96-13.3c0-3.75-.92-7.1-2.75-10.06ZM63.55,50.43h-8.67v-15.66h8.67c2.58,0,4.53.7,5.86,2.1s1.99,3.32,1.99,5.78-.66,4.37-1.97,5.74c-1.32,1.37-3.28,2.06-5.88,2.06ZM98.78,95.84c-1.39,1.33-3.42,1.99-6.07,1.99h-8.98v-16.41h9.14c2.47.03,4.43.83,5.86,2.42,1.43,1.59,2.15,3.71,2.15,6.37,0,2.42-.7,4.3-2.09,5.62Z"/>
  </g>
</svg>