<svg display="none" version="1.1" xmlns="http://www.w3.org/2000/svg" xmlns:xlink="http://www.w3.org/1999/xlink">
<defs>

<!-- LOGO -->
<symbol id="reevesplasticslogo" viewBox="0 0 165 32">
<path d="M16 32c-8.823 0-16-7.179-16-16s7.177-16 16-16 16 7.177 16 16-7.177 16-16 16zM16 1.754c-7.854 0-14.246 6.392-14.246 14.246s6.392 14.246 14.246 14.246 14.246-6.389 14.246-14.246-6.392-14.246-14.246-14.246z"></path>
<path d="M24.562 17.559c-0.403-0.649-0.971-1.147-1.704-1.5s-1.577-0.526-2.53-0.526h-2.342l-1.506-2.914c0.748-0.353 1.298-0.816 1.649-1.386s0.526-1.289 0.526-2.155c0-1.197-0.417-2.125-1.25-2.78s-1.991-0.984-3.469-0.984h-4.907v12.472h3.006v-4.412h1.627l1.691 3.388v11.244h3.006v-4.232h1.919c1.52 0 2.715-0.364 3.585-1.092s1.307-1.699 1.307-2.916c0-0.822-0.202-1.557-0.603-2.206zM13.934 11.058h-1.901v-3.434h1.901c0.566 0 0.993 0.154 1.285 0.46s0.436 0.728 0.436 1.267-0.145 0.958-0.432 1.259c-0.289 0.3-0.719 0.452-1.289 0.452zM21.659 21.015c-0.305 0.292-0.75 0.436-1.331 0.436h-1.969v-3.598h2.004c0.542 0.007 0.971 0.182 1.285 0.531s0.471 0.814 0.471 1.397c0 0.531-0.154 0.943-0.458 1.232z"></path>
<path d="M42.115 16.87c0.338-0.318 0.596-0.713 0.778-1.191 0.182-0.476 0.274-1.053 0.274-1.726 0-0.822-0.158-1.513-0.471-2.072s-0.765-0.982-1.353-1.267c-0.588-0.285-1.298-0.428-2.133-0.428h-3.999v12.472h2.511v-4.574h1.27l1.881 4.574h2.682v-0.121l-2.199-5.122c0.281-0.154 0.537-0.333 0.761-0.544zM37.721 12.275h1.491c0.342 0 0.621 0.075 0.835 0.224s0.371 0.364 0.471 0.647c0.101 0.283 0.149 0.621 0.149 1.015 0 0.371-0.055 0.695-0.167 0.971s-0.281 0.491-0.504 0.642c-0.226 0.151-0.509 0.228-0.853 0.228h-1.421v-3.725z"></path>
<path d="M47.417 17.252h3.914v-2.022h-3.914v-2.956h4.624v-2.090h-7.135v12.472h7.153v-2.083h-4.642v-3.322z"></path>
<path d="M56.025 17.252h3.914v-2.022h-3.914v-2.956h4.624v-2.090h-7.135v12.472h7.153v-2.083h-4.642v-3.322z"></path>
<path d="M66.171 19.291l-2.188-9.106h-2.682l3.589 12.472h2.57l3.614-12.472h-2.706l-2.197 9.106z"></path>
<path d="M74.766 17.252h3.914v-2.022h-3.914v-2.956h4.624v-2.090h-7.135v12.472h7.153v-2.083h-4.642v-3.322z"></path>
<path d="M87.758 16.844c-0.292-0.329-0.653-0.625-1.088-0.89s-0.934-0.509-1.5-0.732c-0.292-0.114-0.559-0.23-0.8-0.351-0.243-0.121-0.452-0.246-0.629-0.377s-0.316-0.276-0.414-0.436c-0.101-0.16-0.149-0.342-0.149-0.548 0-0.274 0.050-0.52 0.149-0.737 0.101-0.217 0.254-0.39 0.463-0.517 0.208-0.129 0.471-0.193 0.792-0.193 0.342 0 0.623 0.077 0.84 0.23s0.375 0.366 0.476 0.634c0.101 0.268 0.149 0.579 0.149 0.934h2.493c0-0.748-0.162-1.41-0.485-1.987s-0.776-1.031-1.362-1.362c-0.585-0.331-1.278-0.498-2.076-0.498-0.583 0-1.114 0.083-1.594 0.248-0.48 0.167-0.895 0.401-1.245 0.706s-0.623 0.673-0.814 1.101c-0.191 0.428-0.287 0.906-0.287 1.43s0.101 1.004 0.305 1.401c0.202 0.397 0.478 0.741 0.827 1.033s0.739 0.546 1.173 0.767c0.434 0.219 0.881 0.428 1.344 0.621 0.388 0.167 0.704 0.325 0.947 0.48 0.243 0.154 0.428 0.309 0.557 0.463s0.213 0.322 0.252 0.504c0.039 0.182 0.059 0.386 0.059 0.607 0 0.263-0.044 0.502-0.129 0.715s-0.228 0.384-0.423 0.504c-0.197 0.123-0.46 0.184-0.792 0.184-0.292 0-0.55-0.037-0.776-0.112s-0.414-0.191-0.57-0.346c-0.153-0.158-0.267-0.368-0.342-0.634s-0.112-0.588-0.112-0.963h-2.511c0 0.708 0.112 1.32 0.333 1.837 0.224 0.517 0.531 0.943 0.921 1.276s0.844 0.583 1.357 0.745 1.059 0.243 1.636 0.243 1.131-0.083 1.614-0.248c0.482-0.164 0.895-0.401 1.237-0.706s0.603-0.671 0.783-1.096c0.18-0.425 0.27-0.897 0.27-1.416s-0.075-0.993-0.224-1.405c-0.149-0.412-0.368-0.781-0.66-1.11z"></path>
<path d="M100.782 10.716c-0.603-0.353-1.32-0.531-2.153-0.531h-4.256v12.472h2.511v-4.394h1.748c0.833 0 1.552-0.162 2.153-0.489 0.603-0.325 1.066-0.783 1.392-1.37 0.325-0.588 0.489-1.287 0.489-2.098s-0.162-1.509-0.489-2.129c-0.325-0.621-0.789-1.105-1.392-1.46zM99.982 15.276c-0.103 0.283-0.265 0.504-0.489 0.664s-0.511 0.239-0.866 0.239h-1.748v-3.905h1.748c0.353 0 0.642 0.094 0.866 0.283s0.386 0.441 0.489 0.754c0.103 0.314 0.153 0.651 0.153 1.011s-0.050 0.673-0.153 0.956z"></path>
<path d="M106.849 10.185h-2.508v12.472h6.92v-2.083h-4.412v-10.389z"></path>
<path d="M117.471 10.185h-1.653l-3.896 12.472h2.647l0.675-2.57h3.445l0.678 2.57h2.664l-3.931-12.472h-0.625zM115.789 18.006l1.173-4.469 1.177 4.469h-2.351z"></path>
<path d="M130.105 16.844c-0.292-0.329-0.653-0.625-1.088-0.89s-0.934-0.509-1.5-0.732c-0.292-0.114-0.559-0.23-0.8-0.351-0.243-0.121-0.452-0.246-0.629-0.377s-0.316-0.276-0.414-0.436c-0.101-0.16-0.149-0.342-0.149-0.548 0-0.274 0.050-0.52 0.149-0.737 0.101-0.217 0.254-0.39 0.463-0.517 0.208-0.129 0.471-0.193 0.792-0.193 0.342 0 0.623 0.077 0.84 0.23s0.375 0.366 0.476 0.634c0.101 0.268 0.149 0.579 0.149 0.934h2.493c0-0.748-0.162-1.41-0.485-1.987s-0.776-1.031-1.362-1.362c-0.585-0.331-1.278-0.498-2.076-0.498-0.583 0-1.114 0.083-1.594 0.248-0.48 0.167-0.895 0.401-1.245 0.706s-0.623 0.673-0.814 1.101c-0.191 0.428-0.287 0.906-0.287 1.43s0.101 1.004 0.305 1.401c0.202 0.397 0.478 0.741 0.827 1.033s0.739 0.546 1.173 0.767c0.434 0.219 0.881 0.428 1.344 0.621 0.388 0.167 0.704 0.325 0.947 0.48 0.243 0.154 0.428 0.309 0.557 0.463s0.213 0.322 0.252 0.504c0.039 0.182 0.059 0.386 0.059 0.607 0 0.263-0.044 0.502-0.129 0.715s-0.228 0.384-0.423 0.504c-0.197 0.123-0.46 0.184-0.792 0.184-0.292 0-0.55-0.037-0.776-0.112s-0.414-0.191-0.57-0.346c-0.153-0.158-0.267-0.368-0.342-0.634s-0.112-0.588-0.112-0.963h-2.511c0 0.708 0.112 1.32 0.333 1.837 0.224 0.517 0.531 0.943 0.921 1.276s0.844 0.583 1.357 0.745 1.059 0.243 1.636 0.243 1.131-0.083 1.614-0.248c0.482-0.164 0.895-0.401 1.237-0.706s0.603-0.671 0.783-1.096c0.18-0.425 0.27-0.897 0.27-1.416s-0.075-0.993-0.224-1.405c-0.149-0.412-0.368-0.781-0.66-1.11z"></path>
<path d="M135.15 10.185h-3.041v2.090h3.041v10.382h2.491v-10.382h3.103v-2.090h-5.594z"></path>
<path d="M142.301 10.185h2.493v12.472h-2.493v-12.472z"></path>
<path d="M149.304 13.82c0.072-0.414 0.184-0.75 0.338-1.006s0.351-0.443 0.592-0.557c0.239-0.114 0.526-0.171 0.857-0.171 0.445 0 0.794 0.068 1.046 0.206 0.252 0.136 0.436 0.375 0.553 0.715s0.182 0.807 0.193 1.401h2.511c-0.068-0.943-0.27-1.741-0.603-2.399-0.333-0.656-0.807-1.156-1.416-1.495-0.612-0.34-1.37-0.509-2.278-0.509-0.68 0-1.289 0.116-1.829 0.346s-1 0.572-1.379 1.024c-0.379 0.452-0.671 1.013-0.873 1.684s-0.305 1.438-0.305 2.3v2.133c0 0.862 0.096 1.627 0.287 2.291s0.476 1.224 0.853 1.675c0.377 0.452 0.833 0.792 1.37 1.024 0.537 0.23 1.151 0.346 1.842 0.346 0.89 0 1.651-0.167 2.283-0.498s1.118-0.818 1.46-1.46 0.531-1.432 0.566-2.368h-2.493c-0.018 0.599-0.088 1.061-0.215 1.388-0.125 0.325-0.318 0.55-0.579 0.678-0.261 0.125-0.601 0.189-1.024 0.189-0.366 0-0.667-0.059-0.903-0.18s-0.423-0.311-0.561-0.574c-0.136-0.263-0.237-0.599-0.3-1.011s-0.094-0.91-0.094-1.5v-2.151c0-0.599 0.035-1.105 0.107-1.52z"></path>
<path d="M164.477 17.954c-0.149-0.412-0.368-0.781-0.66-1.11s-0.653-0.625-1.088-0.89c-0.434-0.265-0.934-0.509-1.5-0.732-0.292-0.114-0.559-0.23-0.8-0.351-0.243-0.121-0.452-0.246-0.629-0.377s-0.316-0.276-0.414-0.436c-0.101-0.16-0.149-0.342-0.149-0.548 0-0.274 0.050-0.52 0.149-0.737 0.101-0.217 0.254-0.39 0.463-0.517 0.208-0.129 0.471-0.193 0.792-0.193 0.342 0 0.623 0.077 0.84 0.23s0.375 0.366 0.476 0.634c0.101 0.268 0.149 0.579 0.149 0.934h2.493c0-0.748-0.162-1.41-0.485-1.987s-0.776-1.031-1.362-1.362c-0.585-0.331-1.278-0.498-2.076-0.498-0.583 0-1.114 0.083-1.594 0.248-0.48 0.167-0.895 0.401-1.245 0.706s-0.623 0.673-0.814 1.101c-0.191 0.428-0.287 0.906-0.287 1.43s0.101 1.004 0.305 1.401c0.202 0.397 0.478 0.741 0.827 1.033s0.739 0.546 1.173 0.767c0.434 0.219 0.881 0.428 1.344 0.621 0.388 0.167 0.704 0.325 0.947 0.48 0.243 0.154 0.428 0.309 0.557 0.463s0.213 0.322 0.252 0.504c0.039 0.182 0.059 0.386 0.059 0.607 0 0.263-0.044 0.502-0.129 0.715s-0.228 0.384-0.423 0.504c-0.197 0.123-0.46 0.184-0.792 0.184-0.292 0-0.55-0.037-0.776-0.112s-0.414-0.191-0.57-0.346c-0.154-0.158-0.268-0.368-0.342-0.634s-0.112-0.588-0.112-0.963h-2.511c0 0.708 0.112 1.32 0.333 1.837 0.224 0.517 0.531 0.943 0.921 1.276s0.844 0.583 1.357 0.745 1.059 0.243 1.636 0.243 1.131-0.083 1.614-0.248c0.482-0.164 0.895-0.401 1.237-0.706s0.603-0.671 0.783-1.096c0.18-0.425 0.27-0.897 0.27-1.416s-0.075-0.993-0.224-1.405z"></path>
</symbol>

<!-- SOCIAL MEDIA -->
<symbol id="icon-facebook" viewBox="0 0 16 28">
<name>facebook</name>
<path d="M14.984 0.187v4.125h-2.453c-1.922 0-2.281 0.922-2.281 2.25v2.953h4.578l-0.609 4.625h-3.969v11.859h-4.781v-11.859h-3.984v-4.625h3.984v-3.406c0-3.953 2.422-6.109 5.953-6.109 1.687 0 3.141 0.125 3.563 0.187z"></path>
</symbol>

<symbol id="icon-twitter" viewBox="0 0 26 28">
<name>twitter</name>
<path d="M25.312 6.375c-0.688 1-1.547 1.891-2.531 2.609 0.016 0.219 0.016 0.438 0.016 0.656 0 6.672-5.078 14.359-14.359 14.359-2.859 0-5.516-0.828-7.75-2.266 0.406 0.047 0.797 0.063 1.219 0.063 2.359 0 4.531-0.797 6.266-2.156-2.219-0.047-4.078-1.5-4.719-3.5 0.313 0.047 0.625 0.078 0.953 0.078 0.453 0 0.906-0.063 1.328-0.172-2.312-0.469-4.047-2.5-4.047-4.953v-0.063c0.672 0.375 1.453 0.609 2.281 0.641-1.359-0.906-2.25-2.453-2.25-4.203 0-0.938 0.25-1.797 0.688-2.547 2.484 3.062 6.219 5.063 10.406 5.281-0.078-0.375-0.125-0.766-0.125-1.156 0-2.781 2.25-5.047 5.047-5.047 1.453 0 2.766 0.609 3.687 1.594 1.141-0.219 2.234-0.641 3.203-1.219-0.375 1.172-1.172 2.156-2.219 2.781 1.016-0.109 2-0.391 2.906-0.781z"></path>
</symbol>

<symbol id="icon-instagram" viewBox="0 0 24 28">
<name>instagram</name>
<path d="M16 14c0-2.203-1.797-4-4-4s-4 1.797-4 4 1.797 4 4 4 4-1.797 4-4zM18.156 14c0 3.406-2.75 6.156-6.156 6.156s-6.156-2.75-6.156-6.156 2.75-6.156 6.156-6.156 6.156 2.75 6.156 6.156zM19.844 7.594c0 0.797-0.641 1.437-1.437 1.437s-1.437-0.641-1.437-1.437 0.641-1.437 1.437-1.437 1.437 0.641 1.437 1.437zM12 4.156c-1.75 0-5.5-0.141-7.078 0.484-0.547 0.219-0.953 0.484-1.375 0.906s-0.688 0.828-0.906 1.375c-0.625 1.578-0.484 5.328-0.484 7.078s-0.141 5.5 0.484 7.078c0.219 0.547 0.484 0.953 0.906 1.375s0.828 0.688 1.375 0.906c1.578 0.625 5.328 0.484 7.078 0.484s5.5 0.141 7.078-0.484c0.547-0.219 0.953-0.484 1.375-0.906s0.688-0.828 0.906-1.375c0.625-1.578 0.484-5.328 0.484-7.078s0.141-5.5-0.484-7.078c-0.219-0.547-0.484-0.953-0.906-1.375s-0.828-0.688-1.375-0.906c-1.578-0.625-5.328-0.484-7.078-0.484zM24 14c0 1.656 0.016 3.297-0.078 4.953-0.094 1.922-0.531 3.625-1.937 5.031s-3.109 1.844-5.031 1.937c-1.656 0.094-3.297 0.078-4.953 0.078s-3.297 0.016-4.953-0.078c-1.922-0.094-3.625-0.531-5.031-1.937s-1.844-3.109-1.937-5.031c-0.094-1.656-0.078-3.297-0.078-4.953s-0.016-3.297 0.078-4.953c0.094-1.922 0.531-3.625 1.937-5.031s3.109-1.844 5.031-1.937c1.656-0.094 3.297-0.078 4.953-0.078s3.297-0.016 4.953 0.078c1.922 0.094 3.625 0.531 5.031 1.937s1.844 3.109 1.937 5.031c0.094 1.656 0.078 3.297 0.078 4.953z"></path>
</symbol>

<symbol id="icon-youtube" viewBox="0 0 32 32">
<name>youtube</name>
<path d="M31.681 9.6c0 0-0.313-2.206-1.275-3.175-1.219-1.275-2.581-1.281-3.206-1.356-4.475-0.325-11.194-0.325-11.194-0.325h-0.012c0 0-6.719 0-11.194 0.325-0.625 0.075-1.987 0.081-3.206 1.356-0.963 0.969-1.269 3.175-1.269 3.175s-0.319 2.588-0.319 5.181v2.425c0 2.587 0.319 5.181 0.319 5.181s0.313 2.206 1.269 3.175c1.219 1.275 2.819 1.231 3.531 1.369 2.563 0.244 10.881 0.319 10.881 0.319s6.725-0.012 11.2-0.331c0.625-0.075 1.988-0.081 3.206-1.356 0.962-0.969 1.275-3.175 1.275-3.175s0.319-2.587 0.319-5.181v-2.425c-0.006-2.588-0.325-5.181-0.325-5.181zM12.694 20.15v-8.994l8.644 4.513-8.644 4.481z"></path>
</symbol>

<!-- ICONS -->

</defs>
</svg>
